#!OML:ASF F:\VICON\USERDATA\INSTALL\rory3\rory3.ASF
:FULLY-SPECIFIED
:DEGREES
27
root 0.41969364533936526 17.990357957169437 1.5949112406528005 -1.4490746309039766 -4.255134522318755 -6.955758141063093
lfemur -20.550088324345126 1.3506658305995631 -10.084670837478091
ltibia 52.46624269112064
lfoot -6.369614473477103 0.8274006584523903
ltoes -9.528889410469656
rfemur -5.4655807545887605 5.316902493382368 33.91287477220587
rtibia 30.377705715832377
rfoot 2.5775406377562273 -11.027824781414214
rtoes 8.92694299226146
lowerback 11.470473594169784 1.3731757509381282 3.7228575741090992
upperback 0.05612922847646783 2.8333924104453825 1.9986657459984216
thorax -6.035233027737243 1.2672788007117706 -1.4267902366636667
lowerneck -16.026253350150665 -3.7726031522323744 -1.4422763561286813
upperneck 21.35040821842358 -5.35605673778119 1.3795240638130237
head 9.63480594311062 -2.40082448050958 -0.012465611723690567
lclavicle -2.510908809727063e-15 -2.7497233257093085e-15
lhumerus -38.04153408520791 9.45310927668192 82.04973660417392
lradius 23.89757792630317
lwrist 10.864303159756183
lhand -29.27073990005197 17.11983055778783
lfingers nan
lthumb -2.4154605303514183 47.139646722778366
rclavicle -2.5245310767108944e-15 -2.7554046862508586e-15
rhumerus -24.476950896047605 -17.585746123663842 -73.35690632166938
rradius 28.576087121441947
rwrist 3.510361141243342
rhand -18.658055166942827 25.824426025890013
rfingers nan
rthumb 7.9835309058734785 -4.296619561339378
28
root 0.4200656793109501 17.956580825058264 2.490859201960143 -2.3349829470493786 -5.100721802246951 -6.801993906531385
lfemur -20.521823555888382 1.3094955232138048 -10.643125595272053
ltibia 46.0343647288495
lfoot -6.1890035716362455 1.691305337993556
ltoes -11.70635033734522
rfemur -6.449932391710008 5.593036849926497 33.86825108498624
rtibia 34.404229052767086
rfoot 2.101492399223959 -12.264085923132107
rtoes 9.975479504747764
lowerback 11.692583295236851 1.6228824283160446 3.330947142840536
upperback 0.10079279007576793 2.883600400021221 1.7614814282920328
thorax -5.867580476243616 1.2842833016532915 -1.4974695738171324
lowerneck -15.86681048992593 -3.773283270807487 -1.5179165835268242
upperneck 21.31904111744199 -5.2997167456109455 1.4319787879493429
head 9.67063061430483 -2.3666931529104946 0.010623078943045566
lclavicle -2.511194092310547e-15 -2.751816731036555e-15
lhumerus -37.769380047046745 9.941294391044105 81.82592996886386
lradius 24.92562641852184
lwrist 10.612355229555112
lhand -29.533375343355928 17.551198971979193
lfingers nan
lthumb -2.728712342284053 47.46147606925097
rclavicle -2.524874685216847e-15 -2.757103937165042e-15
rhumerus -24.481259735974145 -17.082069877107987 -73.12827056612436
rradius 30.506682281014008
rwrist 6.154313207944613
rhand -18.626439440897745 25.3901959775379
rfingers nan
rthumb 8.036603889372824 -4.698770528948348
29
root 0.43411053952828493 17.91274746766078 4.008902386542431 -2.6392768147430856 -5.31960138320941 -7.301877527228701
lfemur -20.15564254785351 1.2293057312159843 -10.405946193227955
ltibia 39.29554015054755
lfoot -5.704599977063416 1.1027865243168598
ltoes -14.013371515596265
rfemur -8.023537101781368 5.7594652168724885 34.11846031136233
rtibia 38.9615406072548
rfoot 1.254347316587264 -13.181168399174519
rtoes 10.849162378911402
lowerback 11.919936017372494 1.9583713593105345 3.9990045370233815
upperback -0.0069562715970636485 3.30230704332813 1.6406016255805957
thorax -5.8247593402193605 1.4227972250175356 -1.8532449968364595
lowerneck -15.706900664436047 -3.7958543614185007 -1.65373054394955
upperneck 21.547314154788786 -5.317290617897674 1.4471803072239686
head 9.794984840707183 -2.3655678646202016 0.01779543082833346
lclavicle -2.518487153811472e-15 -2.7558695069207655e-15
lhumerus -37.249291026455765 9.176809991441884 81.94938007069275
lradius 25.727206185881993
lwrist 10.359914864188202
lhand -29.628253090364854 18.029725487430227
lfingers nan
lthumb -2.797885639525814 47.99896560749146
rclavicle -2.5117095855612087e-15 -2.7490079724742994e-15
rhumerus -24.399410223131916 -16.50528309387367 -72.96049810760675
rradius 32.03252449991856
rwrist 6.280359066210018
rhand -18.296347913677682 24.167275617583336
rfingers nan
rthumb 8.262829460720226 -5.946710927111524
30
root 0.44700316205540946 17.881881243830794 5.401026844642886 -2.5163854291917067 -5.146880995783307 -7.5738427604639735
lfemur -19.01451931501171 0.8542053099026408 -11.306933405868985
ltibia 32.81610664914182
lfoot -4.6890219061709395 -0.3195466215029157
ltoes -14.57219552462886
rfemur -9.09868897956289 5.606249874666003 34.09354205234713
rtibia 44.079150320743565
rfoot 0.5672334850753984 -13.419558838422969
rtoes 10.483865766574052
lowerback 11.991864981544369 2.0729453402975824 4.361440738356875
upperback -0.017716817537642426 3.4399426390467913 1.7003714925116202
thorax -5.743541719113182 1.4532933255012597 -2.15002286170236
lowerneck -15.58083125530562 -3.8369277635289705 -1.644532186741585
upperneck 21.592379146170476 -5.408250737594948 1.5910369109524203
head 9.762263742342453 -2.4044856595933948 0.06275763836343157
lclavicle -2.5132781520267616e-15 -2.753800486449881e-15
lhumerus -36.6003759386933 8.15792262104101 82.31543699252288
lradius 26.5280661655907
lwrist 10.454248108745578
lhand -29.756699707775578 18.607503350586793
lfingers nan
lthumb -2.9756897903001436 48.57278188942955
rclavicle -2.5052974170180355e-15 -2.7460382532545477e-15
rhumerus -24.61955109771168 -15.567926891805218 -73.2177888444215
rradius 33.05304556344034
rwrist 5.345889229086347
rhand -18.18459339935248 23.490249209725842
rfingers nan
rthumb 8.398981867157719 -6.850384615669961
31
root 0.45323446085808317 17.855669522326043 6.72158455956102 -2.6525464202871984 -5.309954027455872 -7.63949725213968
lfemur -17.552008477385197 0.6244953467269352 -11.735031242565007
ltibia 27.55102573545057
lfoot -3.187432248474602 -1.593176509570768
ltoes -16.171036049934756
rfemur -9.842881758594418 5.3998215303504775 33.91516359273895
rtibia 48.58672506547307
rfoot -0.36753675157478227 -12.944932145696297
rtoes 10.42299514572493
lowerback 12.024576731839199 2.124263170553533 4.563492813429706
upperback 0.0350425604620027 3.5186835273900607 1.7066331829868735
thorax -5.726147280838046 1.4972845908710775 -2.1574721258647447
lowerneck -15.811912224946589 -3.8787119366236222 -1.7239452798926171
upperneck 21.82564030398608 -5.507765862968741 1.6734442084867367
head 9.955940548510148 -2.419486371892386 0.0647936115742711
lclavicle -2.517020824091626e-15 -2.7564384758798006e-15
lhumerus -35.64941275116283 6.715836796642971 82.62514098437316
lradius 27.58753794183568
lwrist 10.734742070086021
lhand -30.03146664899354 20.533044660176877
lfingers nan
lthumb -3.3977564059628897 50.361299253387855
rclavicle -2.5239559370570215e-15 -2.757445818968731e-15
rhumerus -25.085692650450774 -14.494233181276268 -73.93906866829947
rradius 33.0710930750008
rwrist 5.046156033985514
rhand -18.196525738507273 23.989847350568496
rfingers nan
rthumb 8.523500882071838 -6.517198776857644
32
root 0.4570561158474957 17.834150978014204 7.2715058158069485 -2.9478766636712566 -5.431455393385179 -7.041672489909995
lfemur -15.771220944401211 0.4815487904429663 -12.455419160242794
ltibia 23.8817847681631
lfoot -2.068493436600334 -3.1181191033661713
ltoes -15.377742658668854
rfemur -10.492011164021303 5.123147254531734 33.295295138001094
rtibia 51.90065823353718
rfoot -1.083305215322139 -11.64941438194862
rtoes 8.362117081361415
lowerback 11.996652367255894 2.204684704272024 4.3405459085572975
upperback 0.04554875755746267 3.5149376519540545 1.655219709059399
thorax -5.751597685685469 1.551646119848179 -1.7489653098515514
lowerneck -15.873824483259416 -3.864855881440573 -1.7476977425138636
upperneck 21.865207808371697 -5.499502882947917 1.8293075475963358
head 9.947497893873294 -2.4172773863462678 0.13393668933417174
lclavicle -2.524603831698849e-15 -2.760574547103231e-15
lhumerus -34.25151904151829 5.192627253215234 82.74555010799276
lradius 28.073824151638203
lwrist 10.82070064965358
lhand -30.230279103627325 20.507039042938153
lfingers nan
lthumb -3.5520693967126538 50.46082843221301
rclavicle -2.5157683165793806e-15 -2.7522028734024004e-15
rhumerus -25.665435266284767 -13.592258535806698 -74.99124297156501
rradius 32.45245137194112
rwrist 4.712853557435855
rhand -18.308182276247962 24.44381193422482
rfingers nan
rthumb 8.451754071989807 -6.083641482377549
33
root 0.46767224554968345 17.816475843613656 8.873723588608632 -3.172243889136227 -5.13194465408052 -6.2754531788551065
lfemur -13.811550463440653 0.27992089576635104 -13.439399428368079
ltibia 21.82556567789806
lfoot -1.9028171933736306 -4.020019627904646
ltoes -14.763666627772336
rfemur -11.351048491764702 4.651277645566891 32.3417794245562
rtibia 54.55329991136798
rfoot -1.6075035825246262 -9.643292632065346
rtoes 7.873341713603502
lowerback 11.88283390887726 2.1727027238650494 3.9410139041379972
upperback 0.026128377275830575 3.3909432243694915 1.5449278222779772
thorax -5.822949596813904 1.4521635056295576 -1.7724408322733132
lowerneck -16.048456815541257 -3.874055163941285 -1.7292272121446084
upperneck 21.762744446466556 -5.541206690286967 2.0024667503466826
head 9.8187618043624 -2.432035591641191 0.21402838435186092
lclavicle -2.5124932383617147e-15 -2.7521028790063423e-15
lhumerus -32.8003653919301 3.7592797667737456 82.6649110016868
lradius 28.310990898383977
lwrist 10.548401717857622
lhand -30.23612175482715 20.482788394055298
lfingers nan
lthumb -3.515578256781153 50.41344552091978
rclavicle -2.509476836822829e-15 -2.7473960868415894e-15
rhumerus -26.16913764803472 -13.088726274260086 -76.25758748518992
rradius 31.529952385671823
rwrist 4.517704879433123
rhand -18.213985200441233 24.033994968138664
rfingers nan
rthumb 8.458231062274423 -6.361985482336691
